<svg width="40" height="40" viewBox="0 0 40 40" fill="none" xmlns="http://www.w3.org/2000/svg">
<path d="M5.79845 37.9844H34.2015C34.9147 37.9844 35.4729 37.4262 35.4729 36.7131V3.25569C35.4729 2.54251 34.9147 1.98438 34.2015 1.98438H12.8992C12.8062 1.98438 12.6822 1.98437 12.5891 2.01538C12.5581 2.01538 12.5271 2.04639 12.5271 2.04639C12.4341 2.0774 12.3721 2.10841 12.2791 2.13941C12.2481 2.17042 12.2171 2.17042 12.186 2.20143C12.093 2.26344 12 2.32546 11.938 2.41848L4.83721 10.7906C4.74418 10.8836 4.68217 11.0076 4.62015 11.1317C4.58915 11.1627 4.58915 11.2247 4.58915 11.2557C4.55814 11.3487 4.55814 11.4417 4.52713 11.5348C4.52713 11.5658 4.52713 11.5658 4.52713 11.5968V36.682C4.52713 37.4262 5.11628 37.9844 5.79845 37.9844ZM11.6279 6.72856V10.3875H8.52713L11.6279 6.72856ZM7.06977 12.8991H12.8992C13.6124 12.8991 14.1705 12.341 14.1705 11.6278V4.52701H32.9302V35.4417H7.06977V12.8991Z" fill="white"/>
<path d="M29.1473 15.6592H10.8527C10.1395 15.6592 9.58139 16.2173 9.58139 16.9305C9.58139 17.6437 10.1395 18.2018 10.8527 18.2018H29.1473C29.8605 18.2018 30.4186 17.6437 30.4186 16.9305C30.4186 16.2173 29.8605 15.6592 29.1473 15.6592Z" fill="white"/>
<path d="M29.1473 21.7988H10.8527C10.1395 21.7988 9.58139 22.357 9.58139 23.0701C9.58139 23.7833 10.1395 24.3415 10.8527 24.3415H29.1473C29.8605 24.3415 30.4186 23.7833 30.4186 23.0701C30.4186 22.388 29.8605 21.7988 29.1473 21.7988Z" fill="white"/>
</svg>
