<svg width="40" height="40" viewBox="0 0 40 40" fill="none" xmlns="http://www.w3.org/2000/svg">
<path d="M19.938 22.2015C25.5194 22.2015 30.0465 17.6744 30.0465 12.093C30.0465 6.51163 25.5194 2.0155 19.938 2.0155C14.3566 2.0155 9.82947 6.54263 9.82947 12.093C9.82947 17.6434 14.3566 22.2015 19.938 22.2015ZM19.938 4.65116C24.031 4.65116 27.3799 8 27.3799 12.093C27.3799 16.186 24.031 19.5349 19.938 19.5349C15.845 19.5349 12.4961 16.186 12.4961 12.093C12.4961 8 15.845 4.65116 19.938 4.65116Z" fill="white"/>
<path d="M2.44961 37.9845H37.5504C38.2946 37.9845 38.8837 37.3954 38.8837 36.6512C38.8837 29.6744 33.2093 23.969 26.2015 23.969H13.7984C6.8217 23.969 1.11627 29.6434 1.11627 36.6512C1.11627 37.3954 1.70542 37.9845 2.44961 37.9845ZM13.7984 26.6357H26.2015C31.2868 26.6357 35.4729 30.4186 36.124 35.3178H3.87596C4.52712 30.4496 8.71317 26.6357 13.7984 26.6357Z" fill="white"/>
</svg>
