<svg width="20" height="20" viewBox="0 0 20 20" fill="none" xmlns="http://www.w3.org/2000/svg">
<path d="M1.62791 4.83721H2.32558L3.95349 18.4341C3.9845 18.7597 4.26357 18.9922 4.58915 18.9922H15.4109C15.7364 18.9922 16 18.7597 16.0465 18.4341L17.6744 4.83721H18.3721C18.7287 4.83721 19.0077 4.55814 19.0077 4.20155C19.0077 3.84496 18.7287 3.56589 18.3721 3.56589H17.1008H13.5039V1.62791C13.5039 1.27132 13.2248 0.992249 12.8682 0.992249H7.13178C6.77519 0.992249 6.49612 1.27132 6.49612 1.62791V3.56589H2.89923H1.62791C1.27132 3.56589 0.992249 3.84496 0.992249 4.20155C0.992249 4.55814 1.28682 4.83721 1.62791 4.83721ZM7.76744 2.26357H12.2326V3.56589H7.76744V2.26357ZM16.3876 4.83721L14.8527 17.7364H5.14729L3.6124 4.83721H16.3876Z" fill="black"/>
<path d="M7.89146 15.7985C8.24804 15.7985 8.52711 15.5194 8.52711 15.1628V7.55039C8.52711 7.1938 8.24804 6.91473 7.89146 6.91473C7.53487 6.91473 7.2558 7.1938 7.2558 7.55039V15.1628C7.2558 15.5194 7.53487 15.7985 7.89146 15.7985Z" fill="black"/>
<path d="M12.1085 15.7985C12.4651 15.7985 12.7442 15.5194 12.7442 15.1628V7.55039C12.7442 7.1938 12.4651 6.91473 12.1085 6.91473C11.7519 6.91473 11.4728 7.1938 11.4728 7.55039V15.1628C11.4728 15.5194 11.7674 15.7985 12.1085 15.7985Z" fill="black"/>
</svg>
