<svg width="20" height="20" viewBox="0 0 20 20" fill="none" xmlns="http://www.w3.org/2000/svg">
<path d="M18.4806 17.7209H1.51939C1.1628 17.7209 0.883728 18.0155 0.883728 18.3566C0.883728 18.6977 1.1783 18.9923 1.51939 18.9923H18.4961C18.8527 18.9923 19.1318 18.6977 19.1318 18.3566C19.1318 18.0155 18.8372 17.7209 18.4806 17.7209Z" fill="black"/>
<path d="M0.883729 12.093L0.868225 15.1163C0.868225 15.2868 0.930241 15.4574 1.05427 15.5814C1.1783 15.7054 1.33334 15.7674 1.50388 15.7674L4.51164 15.7519C4.68218 15.7519 4.83722 15.6899 4.96125 15.5659L15.3488 5.17829C15.5969 4.93023 15.5969 4.52713 15.3488 4.26356L12.3721 1.25581C12.124 1.00775 11.7209 1.00775 11.4574 1.25581L9.37985 3.34883L1.06978 11.6434C0.961248 11.7674 0.883729 11.9225 0.883729 12.093ZM11.9225 2.62015L14.0155 4.71317L12.8372 5.89147L10.7442 3.79845L11.9225 2.62015ZM2.17055 12.3721L9.82947 4.71317L11.9225 6.8062L4.26357 14.4496L2.15505 14.4651L2.17055 12.3721Z" fill="black"/>
</svg>
