<svg width="30" height="30" viewBox="0 0 30 30" fill="red" xmlns="http://www.w3.org/2000/svg">
<path d="M15 28.5115C22.4418 28.5115 28.5116 22.465 28.5116 14.9999C28.5116 7.53479 22.4418 1.48828 15 1.48828C7.55811 1.48828 1.48834 7.55805 1.48834 14.9999C1.48834 22.4418 7.55811 28.5115 15 28.5115ZM15 3.39526C21.3953 3.39526 26.6046 8.60456 26.6046 14.9999C26.6046 21.3953 21.3953 26.6046 15 26.6046C8.60462 26.6046 3.39532 21.3953 3.39532 14.9999C3.39532 8.60456 8.60462 3.39526 15 3.39526Z" fill="#D6092E"/>
<path d="M9.93025 19.9303C10.1163 20.1164 10.3489 20.2094 10.6047 20.2094C10.8605 20.2094 11.093 20.1164 11.2791 19.9303L15 16.2094L18.721 19.9303C18.907 20.1164 19.1396 20.2094 19.3954 20.2094C19.6512 20.2094 19.8837 20.1164 20.0698 19.9303C20.4419 19.5582 20.4419 18.9536 20.0698 18.5815L16.3489 14.8606L20.0698 11.1396C20.4419 10.7675 20.4419 10.1629 20.0698 9.79079C19.6977 9.4187 19.093 9.4187 18.721 9.79079L15 13.5117L11.2791 9.79079C10.907 9.4187 10.3023 9.4187 9.93025 9.79079C9.55816 10.1629 9.55816 10.7675 9.93025 11.1396L13.6512 14.8606L9.93025 18.5815C9.55816 18.9536 9.55816 19.5582 9.93025 19.9303Z" fill="#D6092E"/>
</svg>
