<svg width="40" height="40" viewBox="0 0 40 40" fill="none" xmlns="http://www.w3.org/2000/svg">
<path d="M28.3411 10.3876H11.6589C10.9457 10.3876 10.3876 10.9457 10.3876 11.6589C10.3876 12.3721 10.9457 12.9302 11.6589 12.9302H28.3721C29.0852 12.9302 29.6434 12.3721 29.6434 11.6589C29.6124 10.9457 29.0542 10.3876 28.3411 10.3876Z" fill="white"/>
<path d="M28.3411 27.1007H11.6589C10.9457 27.1007 10.3876 27.6588 10.3876 28.372C10.3876 29.0852 10.9457 29.6433 11.6589 29.6433H28.3721C29.0852 29.6433 29.6434 29.0852 29.6434 28.372C29.6124 27.6588 29.0542 27.1007 28.3411 27.1007Z" fill="white"/>
<path d="M28.3411 18.7286H11.6589C10.9457 18.7286 10.3876 19.2868 10.3876 20C10.3876 20.7131 10.9457 21.2713 11.6589 21.2713H28.3721C29.0852 21.2713 29.6434 20.7131 29.6434 20C29.6124 19.2868 29.0542 18.7286 28.3411 18.7286Z" fill="white"/>
</svg>
