<svg width="20" height="20" viewBox="0 0 20 20" fill="none" xmlns="http://www.w3.org/2000/svg">
<path d="M1.62791 9.13178H8.49612C8.85271 9.13178 9.13178 8.85271 9.13178 8.49612V1.62791C9.13178 1.27132 8.85271 0.992249 8.49612 0.992249H1.62791C1.27132 0.992249 0.992249 1.27132 0.992249 1.62791V8.49612C0.992249 8.83721 1.28682 9.13178 1.62791 9.13178ZM2.26357 2.26357H7.86046V7.86046H2.26357V2.26357Z" fill="black"/>
<path d="M19.0078 1.62791C19.0078 1.27132 18.7287 0.992249 18.3721 0.992249H11.5039C11.1473 0.992249 10.8682 1.27132 10.8682 1.62791V8.49612C10.8682 8.85271 11.1473 9.13178 11.5039 9.13178H18.3721C18.7287 9.13178 19.0078 8.85271 19.0078 8.49612V1.62791ZM17.7364 7.86046H12.1395V2.26357H17.7364V7.86046V7.86046Z" fill="black"/>
<path d="M1.62791 19.0078H8.49612C8.85271 19.0078 9.13178 18.7287 9.13178 18.3721V11.5039C9.13178 11.1473 8.85271 10.8682 8.49612 10.8682H1.62791C1.27132 10.8682 0.992249 11.1473 0.992249 11.5039V18.3721C0.992249 18.7132 1.28682 19.0078 1.62791 19.0078ZM2.26357 12.1395H7.86046V17.7364H2.26357V12.1395Z" fill="black"/>
<path d="M18.3721 10.8682H11.5039C11.1473 10.8682 10.8682 11.1473 10.8682 11.5039V18.3721C10.8682 18.7287 11.1473 19.0078 11.5039 19.0078H18.3721C18.7287 19.0078 19.0078 18.7287 19.0078 18.3721V11.5039C19.0078 11.1628 18.7132 10.8682 18.3721 10.8682ZM17.7364 17.7364H12.1395V12.1395H17.7364V17.7364Z" fill="black"/>
</svg>
