<svg width="30" height="30" viewBox="0 0 30 30" fill="none" xmlns="http://www.w3.org/2000/svg">
<path d="M28.0032 13.052H16.9968V1.99675C16.9968 0.876625 16.1201 0 15 0C13.8799 0 13.0032 0.876625 13.0032 1.99675V13.0032H1.99675C0.876623 13.0032 0 13.8799 0 15C0 16.1201 0.876623 16.9968 1.99675 16.9968H13.0032V28.0032C13.0032 29.1234 13.8799 30 15 30C16.1201 30 16.9968 29.1234 16.9968 28.0032V16.9968H28.0032C29.1234 16.9968 30 16.1201 30 15C30 13.8799 29.1234 13.052 28.0032 13.052Z" fill="white"/>
</svg>
