<svg width="40" height="40" viewBox="0 0 40 40" fill="none" xmlns="http://www.w3.org/2000/svg">
<path d="M3.25581 16.2481C2.54264 16.2481 1.9845 16.8062 1.9845 17.5194V22.4806C1.9845 23.1938 2.54264 23.7519 3.25581 23.7519H5.5814C5.92248 25.0853 6.44961 26.3566 7.16279 27.5349L5.55039 29.1473C5.05426 29.6434 5.05426 30.4496 5.55039 30.9457L9.05427 34.4496C9.55039 34.9457 10.3566 34.9457 10.8527 34.4496L12.4961 32.8062C13.6744 33.4884 14.9457 34.0155 16.2791 34.3566V36.6822C16.2791 37.3953 16.8372 37.9535 17.5504 37.9535H22.5116C23.2248 37.9535 23.7829 37.3953 23.7829 36.6822V34.3256C25.1163 33.9845 26.3566 33.4574 27.5349 32.7752L29.2093 34.4496C29.7054 34.9457 30.5116 34.9457 31.0078 34.4496L34.5116 30.9457C35.0078 30.4496 35.0078 29.6434 34.5116 29.1473L32.8372 27.4729C33.5194 26.2946 34.0465 25.0543 34.3876 23.7209H36.7442C37.4574 23.7209 38.0155 23.1628 38.0155 22.4496V17.4884C38.0155 16.7752 37.4574 16.2171 36.7442 16.2171H34.3876C34.0465 14.8837 33.5194 13.6434 32.8372 12.4651L34.5116 10.7907C35.0078 10.2946 35.0078 9.48837 34.5116 8.99225L30.9767 5.51938C30.4806 5.02326 29.6744 5.02326 29.1783 5.51938L27.5349 7.16279C26.3566 6.48062 25.0853 5.95349 23.7519 5.5814V3.25581C23.7519 2.54264 23.1938 1.9845 22.4806 1.9845H17.5194C16.8062 1.9845 16.2481 2.54264 16.2481 3.25581V5.5814C14.9147 5.92248 13.6434 6.44961 12.4651 7.13178L10.8217 5.48837C10.3256 4.99225 9.51938 4.99225 9.02326 5.48837L5.51938 9.02326C5.02326 9.51938 5.02326 10.3256 5.51938 10.8217L7.13178 12.4341C6.41861 13.6124 5.89147 14.8837 5.55039 16.2481H3.25581ZM7.84496 17.7364C8.15504 16 8.83721 14.4186 9.79845 12.9922C10.1395 12.4961 10.0775 11.814 9.64341 11.3798L8.21706 9.92248L9.92248 8.21705L11.3798 9.67442C11.814 10.1085 12.4961 10.1705 12.9922 9.82946C14.4186 8.83721 16.031 8.18605 17.7364 7.87597C18.3256 7.75194 18.7907 7.25581 18.7907 6.63566V4.55814H21.2093V6.63566C21.2093 7.25581 21.6434 7.78295 22.2326 7.87597C23.938 8.18605 25.5194 8.86822 26.9457 9.82946C27.4419 10.1705 28.124 10.1085 28.5581 9.67442L30.0465 8.18605L31.7519 9.89147L30.2636 11.3798C29.8295 11.814 29.7674 12.4961 30.1085 12.9922C31.0698 14.4186 31.7209 16 32.062 17.7054C32.186 18.2946 32.7132 18.7597 33.3023 18.7597H35.4109V21.1783H33.3023C32.6822 21.1783 32.155 21.6124 32.062 22.2015C31.7519 23.907 31.1008 25.4884 30.1085 26.9147C29.7674 27.4109 29.8295 28.093 30.2636 28.5271L31.7519 30.0155L30.0465 31.7209L28.5581 30.2326C28.124 29.7984 27.4419 29.7364 26.9457 30.0775C25.5194 31.0698 23.938 31.7209 22.2326 32.031C21.6434 32.155 21.2093 32.6822 21.2093 33.2713V35.3488H18.7907V33.2713C18.7907 32.6512 18.3566 32.124 17.7364 32.031C16 31.7209 14.4186 31.0698 12.9922 30.0775C12.4961 29.7364 11.814 29.7984 11.3798 30.2326L9.92248 31.6899L8.21706 30.0775L9.67442 28.6202C10.1085 28.186 10.1705 27.5039 9.82946 27.0077C8.83721 25.5814 8.18605 23.969 7.84496 22.2636C7.72093 21.6744 7.22481 21.2403 6.60465 21.2403H4.55814V18.8217H6.60465C7.1938 18.7907 7.72093 18.3566 7.84496 17.7364Z" fill="white"/>
<path d="M19.969 28.8993C24.7752 28.8993 28.6822 24.9923 28.6822 20.1861C28.6822 15.3799 24.7752 11.4729 19.969 11.4729C15.1628 11.4729 11.2558 15.3799 11.2558 20.1861C11.2558 24.9923 15.1628 28.8993 19.969 28.8993ZM19.969 14.0155C23.3798 14.0155 26.1395 16.7752 26.1395 20.1861C26.1395 23.5969 23.3798 26.3566 19.969 26.3566C16.5581 26.3566 13.7984 23.5969 13.7984 20.1861C13.7984 16.7752 16.5581 14.0155 19.969 14.0155Z" fill="white"/>
</svg>
