<svg width="40" height="40" viewBox="0 0 40 40" fill="none" xmlns="http://www.w3.org/2000/svg">
<path d="M36.7132 35.4729H4.52713V3.28682C4.52713 2.57364 3.96899 2.0155 3.25581 2.0155C2.54264 2.0155 1.9845 2.57364 1.9845 3.28682V36.7442C1.9845 37.4574 2.54264 38.0155 3.25581 38.0155H36.7132C37.4264 38.0155 37.9845 37.4574 37.9845 36.7442C37.9845 36.031 37.4264 35.4729 36.7132 35.4729Z" fill="white"/>
<path d="M16.8372 30.5737V12.2791C16.8372 11.566 16.2791 11.0078 15.5659 11.0078C14.8527 11.0078 14.2946 11.566 14.2946 12.2791V30.5737C14.2946 31.2869 14.8527 31.845 15.5659 31.845C16.2791 31.845 16.8372 31.2869 16.8372 30.5737Z" fill="white"/>
<path d="M10.6977 30.5737V12.2791C10.6977 11.566 10.1395 11.0078 9.42635 11.0078C8.71317 11.0078 8.15503 11.566 8.15503 12.2791V30.5737C8.15503 31.2869 8.71317 31.845 9.42635 31.845C10.1395 31.845 10.6977 31.2869 10.6977 30.5737Z" fill="white"/>
<path d="M29.1162 30.5737V12.2791C29.1162 11.566 28.5581 11.0078 27.8449 11.0078C27.1318 11.0078 26.5736 11.566 26.5736 12.2791V30.5737C26.5736 31.2869 27.1318 31.845 27.8449 31.845C28.5581 31.845 29.1162 31.2869 29.1162 30.5737Z" fill="white"/>
<path d="M35.2558 30.5736V21.4263C35.2558 20.7132 34.6977 20.155 33.9845 20.155C33.2713 20.155 32.7132 20.7132 32.7132 21.4263V30.5736C32.7132 31.2868 33.2713 31.8449 33.9845 31.8449C34.6977 31.8449 35.2558 31.2868 35.2558 30.5736Z" fill="white"/>
<path d="M22.9768 30.5736V21.4263C22.9768 20.7132 22.4186 20.155 21.7055 20.155C20.9923 20.155 20.4341 20.7132 20.4341 21.4263V30.5736C20.4341 31.2868 20.9923 31.8449 21.7055 31.8449C22.4186 31.8449 22.9768 31.2868 22.9768 30.5736Z" fill="white"/>
</svg>
