<svg width="30" height="30" viewBox="0 0 30 30" fill="none" xmlns="http://www.w3.org/2000/svg">
<path d="M9.41856 14.2089C9.04646 13.8368 8.44181 13.8368 8.06972 14.2089C7.69763 14.581 7.69763 15.1857 8.06972 15.5578L12.4651 19.9531C12.6511 20.1392 12.8837 20.2322 13.1395 20.2322C13.1627 20.2322 13.1627 20.2322 13.186 20.2322C13.4418 20.2089 13.6976 20.0926 13.8837 19.8833L24.8837 6.6973C25.2093 6.30195 25.1627 5.6973 24.7674 5.34846C24.372 5.02288 23.7674 5.06939 23.4186 5.46474L13.0697 17.8601L9.41856 14.2089V14.2089Z" fill="#3BA86D"/>
<path d="M22.1163 3.5579C16.7674 0.209064 9.90698 0.999762 5.44186 5.46488C0.186047 10.7207 0.186047 19.3021 5.44186 24.5579C8.06977 27.1858 11.5349 28.5114 14.9767 28.5114C18.4186 28.5114 21.8837 27.1858 24.5116 24.5579C29 20.0695 29.7674 13.1858 26.3953 7.83697C26.1163 7.39511 25.5349 7.25558 25.093 7.53465C24.6512 7.81372 24.5116 8.39511 24.7907 8.83697C27.6977 13.4416 27.0233 19.3486 23.1628 23.2091C18.6512 27.7207 11.2791 27.7207 6.76744 23.2091C2.25581 18.6974 2.25581 11.3253 6.76744 6.81372C10.6279 2.97651 16.5116 2.30209 21.1163 5.16255C21.5581 5.44162 22.1395 5.30209 22.4186 4.86023C22.6977 4.41837 22.5581 3.83697 22.1163 3.5579Z" fill="#3BA86D"/>
</svg>
